# xmcd
#
# Track frame offsets:
#	150
#	17392
#	32506
#	50441
#	63959
#	79351
#	123522
#	134566
#	147892
#	164009
#	178241
#	198981
#
# Disc length: 2909 seconds
#
# Revision: 0
# Processed by: cddbd v1.5.2PL0 Copyright (c) Steve Scherf et al.
# Submitted via: dBpowerAMP V4.0
#
DISCID=a90b5b0c
DTITLE=TOUCH OF CLASS - Dans in die Reën
DYEAR=2016
DGENRE=Country
TTITLE0=Mexican Girl
TTITLE1=Klein Karoo
TTITLE2=My Friend The Wind
TTITLE3=Liefling
TTITLE4=Suspicious Minds
TTITLE5=Cliff Richard and Shadows medley
TTITLE6=Bye Bye Love
TTITLE7=Johonny B Goode
TTITLE8=The Gambler
TTITLE9=Ressano Garcia
TTITLE10=Cry To Me
TTITLE11=Dont't Stop Believin
EXTD=
EXTT0=
EXTT1=
EXTT2=
EXTT3=
EXTT4=
EXTT5=
EXTT6=
EXTT7=
EXTT8=
EXTT9=
EXTT10=
EXTT11=
PLAYORDER=
